<?xml version="1.0" encoding="utf-8"?>
<!-- Generator: Adobe Illustrator 19.0.0, SVG Export Plug-In . SVG Version: 6.00 Build 0)  -->
<svg version="1.1" id="Layer_1" xmlns="http://www.w3.org/2000/svg" xmlns:xlink="http://www.w3.org/1999/xlink" x="0px" y="0px"
	 viewBox="-351 337 576 172.5" style="enable-background:new -351 337 576 172.5;" xml:space="preserve">
<style type="text/css">
	.st0{fill:#2CC36B;}
    .st1{fill:#e2e9e9;}
</style>
<path class="st0" d="M-233.7,465h-10.7c-5.9,0-10.7-4.8-10.7-10.7v-74.7c0.1-5.8-4.7-10.6-10.6-10.6h-42.7
	c-5.8,0-10.6,4.8-10.6,10.7v74.7c0,5.9-4.8,10.7-10.7,10.7h-10.7c-5.8-0.1-10.6-4.9-10.6-10.8v-74.7v-5.3
	c0-20.6,16.7-37.3,37.3-37.3h7.2h43.8h2.4c20.6,0,37.3,16.7,37.3,37.3v5.3v74.7C-223,460.2-227.8,465-233.7,465z"/>
<path class="st0" d="M-175,337c-20.6,0-37.3,16.7-37.3,37.3v8.4v39.6v5.3c0,20.6,16.7,37.3,37.3,37.3h5.3H-95
	c5.9,0,10.7-4.8,10.7-10.7v-10.7c0-5.9-4.8-10.7-10.7-10.7h-74.7c-5.9,0-10.7-4.8-10.7-10.7v-42.7c0-5.9,4.8-10.7,10.7-10.7H-95
	c5.9,0,10.7-4.8,10.7-10.7v-10.7c0-5.5-4.8-10.3-10.7-10.3h-74.7C-169.7,337-175,337-175,337z"/>
<path class="st0" d="M134.3,465c-20.6,0-37.3-16.7-37.3-37.3v-53.4c0-20.6,16.7-37.3,37.3-37.3h80c5.9,0,10.7,4.8,10.7,10.7v10.7
	c0,5.9-4.8,10.7-10.7,10.7h-74.7c-5.9,0-10.7,4.8-10.7,10.7v42.7c0,5.9,4.8,10.7,10.7,10.7h53.3c0,0,0-15.9,0-21.3
	c0-5.9,4.8-10.7,10.7-10.7h10.7c5.9,0,10.7,4.8,10.7,10.7v42.7c0,5.9-4.8,10.7-10.7,10.7h-74.7h-5.3V465z"/>
<path class="st0" d="M-4.3,337c5.9,0,10.7,4.4,10.7,4.4S11.1,337,17,337h32c20.6,0,37.3,16.7,37.3,37.3v80c0,5.9-4.8,10.7-10.7,10.7
	H64.9c-5.9,0-10.7-4.8-10.7-10.7v-74.7c0-5.9-4.8-10.7-10.7-10.7H32.8c-5.9,0-10.7,4.8-10.7,10.7v74.7c0,5.9-4.8,10.7-10.7,10.7H0.7
	c-5.9,0-10.7-4.8-10.7-10.7v-74.7c0-5.9-4.8-10.7-10.7-10.7h-10.7c-5.9,0-10.7,4.8-10.7,10.7v74.7c0,5.9-4.8,10.7-10.7,10.7h-10.7
	c-5.9,0-10.7-4.8-10.7-10.7v-80C-73.7,353.7-57,337-36.3,337H-4.3L-4.3,337z"/>
<g>
	<path class="st1" d="M-335,508.9l-9.3-16.3l0.2,16.3h-4.7v-21.6h5.8l8.8,15.5l-0.2-15.5h4.6v21.6H-335z"/>
	<path class="st1" d="M-306.6,506.5c-0.9,0.9-2,1.6-3.3,2.1c-1.3,0.5-3,0.7-4.8,0.7c-3.7,0-6.4-1-8.2-2.9c-1.8-1.9-2.6-4.7-2.6-8.4
		c0-3.7,0.9-6.4,2.6-8.3c1.8-1.9,4.2-2.9,7.3-2.9c3.1,0,5.5,0.5,7.1,1.4c1.8,1,3.1,2.7,3.9,5.1c0.2,0.8,0.4,1.8,0.5,2.8
		c0.1,1.1,0.2,2.3,0.2,3.6C-303.9,502.4-304.8,504.6-306.6,506.5z M-310.1,492.9c-1-1.5-2.5-2.3-4.7-2.3c-2,0-3.6,0.8-4.6,2.3
		c-0.8,1.3-1.3,2.8-1.3,4.5c0,1.8,0.2,3.4,0.6,4.7c0.2,0.6,0.4,1.2,0.8,1.8c0.4,0.5,0.9,0.9,1.6,1.2l1.5,0.4
		c0.6,0.1,1.5,0.2,2.8,0.2c1.2,0,2.3-0.8,3.3-2.3c0.8-1.3,1.2-3,1.2-5.3C-308.9,495.9-309.3,494.1-310.1,492.9z"/>
	<path class="st1" d="M-285,508.9l-4.8-8.4h-5.3v8.4h-4.5v-21.6h11.2h1.1l0.8,0.2l0.6,0.1c0.2,0,0.3,0,0.4,0c0.1,0,0.3,0.1,0.7,0.2
		c1.3,0.3,2.2,1.1,3,2.3c0.6,1.1,0.9,2.4,0.9,3.9c0,1.5-0.4,2.7-1.1,3.8c-0.7,1-1.8,1.7-3.3,2.1l5.3,9H-285z M-286.2,491.9
		c-0.6-0.5-1.7-0.7-3.3-0.7h-5.6v5.5h5.6c1.6,0,2.7-0.2,3.3-0.7c0.5-0.5,0.8-1.2,0.8-2C-285.5,493-285.8,492.3-286.2,491.9z"/>
	<path class="st1" d="M-266.5,491.1v17.8h-4.7v-17.8h-6.9v-3.8h18.6v3.8H-266.5z"/>
	<path class="st1" d="M-243.2,508.9v-9h-8.3v9h-4.5v-21.6h4.5v8.7h8.3v-8.7h4.5v21.6H-243.2z"/>
	<path class="st1" d="M-214.2,508.9l-1.9-0.1l-0.7,0c-0.2,0-0.4,0-0.6-0.1c-0.1,0-0.2-0.1-0.2-0.1c-0.1,0-0.2,0-0.3-0.1
		c-2.1-0.5-3.8-1.8-4.9-3.8c-1-1.7-1.5-3.6-1.5-5.5c0-2,0.2-3.7,0.5-5c0.3-1.4,0.9-2.6,1.6-3.6c0.9-1.2,2-2,3.3-2.5
		c0.8-0.3,1.6-0.4,2.3-0.6c0.8-0.1,4.2-0.2,10-0.2v3.7h-7.5c-1.4,0-2.6,0.4-3.5,1.2c-0.7,0.7-1.2,1.6-1.4,2.8
		c-0.3,1.2-0.4,2.5-0.4,3.8c0,1.4,0.2,2.6,0.5,3.7c0.5,1.3,1.4,2.2,2.5,2.5l0.5,0.1l0.5,0l8.7,0v3.8H-214.2z"/>
	<path class="st1" d="M-184.4,506.5c-0.9,0.9-2,1.6-3.3,2.1c-1.3,0.5-3,0.7-4.8,0.7c-3.7,0-6.4-1-8.2-2.9c-1.8-1.9-2.6-4.7-2.6-8.4
		c0-3.7,0.9-6.4,2.6-8.3c1.8-1.9,4.2-2.9,7.3-2.9s5.5,0.5,7.1,1.4c1.8,1,3.1,2.7,3.9,5.1c0.2,0.8,0.4,1.8,0.5,2.8
		c0.1,1.1,0.2,2.3,0.2,3.6C-181.7,502.4-182.6,504.6-184.4,506.5z M-187.9,492.9c-1-1.5-2.5-2.3-4.7-2.3c-2,0-3.6,0.8-4.6,2.3
		c-0.8,1.3-1.3,2.8-1.3,4.5c0,1.8,0.2,3.4,0.6,4.7c0.2,0.6,0.4,1.2,0.8,1.8c0.4,0.5,0.9,0.9,1.6,1.2l1.5,0.4
		c0.6,0.1,1.5,0.2,2.8,0.2c1.2,0,2.3-0.8,3.3-2.3c0.8-1.3,1.2-3,1.2-5.3C-186.7,495.9-187.1,494.1-187.9,492.9z"/>
	<path class="st1" d="M-162.3,508.9l-2-5.2h-9.4l-1.9,5.2h-4.8l9.1-21.6h4.8l9.2,21.6H-162.3z M-169.1,491.7l-3.2,8.3h6.5
		L-169.1,491.7z"/>
	<path class="st1" d="M-137.3,507.5c-1.2,0.9-7.1,1.4-17.6,1.4V505h11.4c1.1,0,1.9-0.1,2.4-0.4c0.7-0.4,1.1-0.9,1.1-1.5
		c0-0.7,0-1.1-0.1-1.4c0-0.2-0.1-0.4-0.2-0.5c-0.1-0.2-0.1-0.3-0.2-0.4c-0.5-0.5-2-0.8-4.4-0.8h-1l-1.5,0c-2.3,0-3.9-0.2-5-0.6
		c-2.3-0.9-3.4-2.6-3.4-5.2c0-2.6,0.7-4.4,2.1-5.5c1.2-0.9,3.1-1.4,5.5-1.4h12v3.9h-11.2c-1.1,0-1.9,0.2-2.6,0.6c-0.6,0.5-1,1.1-1,2
		s0.3,1.5,0.8,1.9c0.6,0.4,3.3,0.6,8.1,0.6l1.7,0l0.7,0.1l0.6,0.1c0.5,0.1,0.9,0.3,1.4,0.5l0.5,0.4l0.7,0.5c0.5,0.4,0.8,1.1,1,1.9
		c0.2,0.8,0.3,2,0.3,3.5C-135.2,505.2-135.9,506.5-137.3,507.5z"/>
	<path class="st1" d="M-121.1,491.1v17.8h-4.7v-17.8h-6.9v-3.8h18.6v3.8H-121.1z"/>
	<path class="st1" d="M-81.3,508.9l0.4-16.8l-5.5,16.8h-4.8l-5.7-16.9l0.5,16.9h-4.7v-21.6h6.7l5.5,16.5l5.5-16.5h6.7v21.6H-81.3z"
		/>
	<path class="st1" d="M-56,508.9l-2-5.2h-9.4l-1.9,5.2h-4.8l9.1-21.6h4.8l9.2,21.6H-56z M-62.7,491.7l-3.2,8.3h6.5L-62.7,491.7z"/>
	<path class="st1" d="M-33.5,508.9l-4.8-8.4h-5.3v8.4h-4.5v-21.6H-37h1.1l0.8,0.2l0.6,0.1c0.2,0,0.3,0,0.4,0c0.1,0,0.3,0.1,0.7,0.2
		c1.3,0.3,2.2,1.1,3,2.3c0.6,1.1,0.9,2.4,0.9,3.9c0,1.5-0.4,2.7-1.1,3.8c-0.7,1-1.8,1.7-3.3,2.1l5.3,9H-33.5z M-34.7,491.9
		c-0.6-0.5-1.7-0.7-3.3-0.7h-5.6v5.5h5.6c1.6,0,2.7-0.2,3.3-0.7c0.5-0.5,0.8-1.2,0.8-2C-34,493-34.2,492.3-34.7,491.9z"/>
	<path class="st1" d="M-7.2,507.6c-1.2,0.8-2.9,1.3-5.3,1.3h-11.9v-21.6h11.1c0.9,0,1.5,0,1.7,0c0.1,0,0.4,0.1,0.7,0.1
		c0.1,0,0.2,0,0.5,0.1c0.9,0.1,1.9,0.4,2.8,0.8c1,0.4,1.6,1.2,1.9,2.3l0.3,1.3l0.1,1.8c0,0.7-0.3,1.5-0.9,2.3
		c-0.6,0.8-1.4,1.4-2.3,2c1,0.5,1.8,1.1,2.4,1.9c0.6,0.8,0.9,2,0.9,3.7C-5.2,505.4-5.9,506.7-7.2,507.6z M-11,491.8
		c-0.6-0.4-1.3-0.6-2.2-0.6h-6.6v5h6.6c0.9,0,1.6-0.2,2.2-0.6c0.5-0.4,0.8-1,0.8-1.9C-10.2,492.9-10.5,492.2-11,491.8z M-10.9,500.6
		c-0.5-0.4-3.5-0.6-8.9-0.6v5.1h6.7c0.9,0,1.6-0.2,2.2-0.5c0.6-0.4,0.8-1,0.8-2C-10.1,501.7-10.4,501-10.9,500.6z"/>
	<path class="st1" d="M7.4,508.9c-3,0-5.1-0.7-6.4-2.2c-1.3-1.5-2-7.9-2-19.4h4.5v11.9l0,1.3l0.1,1.5c0.1,1.3,0.7,2.1,1.7,2.6
		c0.8,0.4,3.6,0.7,8.6,0.7v3.6H7.4z"/>
	<path class="st1" d="M26.3,508.9l-1.9-0.1l-0.7,0c-0.2,0-0.4,0-0.6-0.1c-0.1,0-0.2-0.1-0.2-0.1c-0.1,0-0.2,0-0.3-0.1
		c-2.1-0.5-3.8-1.8-4.9-3.8c-0.5-0.8-0.8-1.7-1.1-2.6c-0.3-0.9-0.4-1.9-0.4-2.9c0-2,0.2-3.7,0.5-5c0.3-1.4,0.9-2.6,1.6-3.6
		c0.9-1.2,2-2,3.3-2.5c0.5-0.2,1.3-0.4,2.3-0.6c0.9-0.1,4.2-0.2,10-0.2v3.8h-7.5c-3.4,0-5.1,1.7-5.1,5h12.6v3.8H21.3
		c0,0.9,0.1,1.6,0.2,2.2c0.1,0.3,0.2,0.6,0.3,0.9c0.1,0.2,0.3,0.5,0.5,0.8l0.8,0.8c0.3,0.2,0.6,0.4,1,0.5c0.4,0.1,0.8,0.2,1.1,0.2
		l8.7,0v3.8H26.3z"/>
	<path class="st1" d="M67.7,500.1c-0.2,0.9-0.4,1.6-0.7,2.2l-0.5,1.3l-0.4,0.7c-0.6,1.2-1.7,2.4-3.1,3.4c-1.5,1.1-3.5,1.6-6.2,1.6
		l-1.6-0.1l-0.2,0c-0.5,0-0.8-0.1-0.8-0.1c-0.3-0.1-0.6-0.1-0.7-0.2c-1.1-0.2-2.1-0.7-3-1.6c-0.8-0.8-1.4-1.8-1.6-3l-0.1-1.2
		c0-1.1,0.3-2,0.8-2.7c0.4-0.7,1.1-1.4,2.1-2.1l-0.4-0.4l-0.5-0.4l-0.5-0.4l-0.4-0.4c-0.1-0.1-0.3-0.5-0.7-1.2
		c-0.2-0.4-0.3-0.8-0.4-1.2c0-0.1,0-0.3-0.1-0.4c0-0.2-0.1-0.3-0.1-0.4c0-0.1,0-0.3,0-0.7l0.1-1c0.2-1.5,1-2.7,2.1-3.5
		c0.6-0.4,1.2-0.6,1.9-0.8l1.1-0.2l1.3-0.1h7.3v4c-5,0-7.8,0.2-8.4,0.6c-0.6,0.5-1,1.1-1,1.8l0.1,0.7c0.2,0.8,0.6,1.3,1.1,1.5
		c0.5,0.3,1.3,0.4,2.3,0.4h0.8v3.7h-1.1l-0.4,0l-0.8,0.1c-0.4,0.1-0.7,0.3-1,0.5c-0.3,0.3-0.5,0.7-0.7,1.3l-0.1,0.6
		c0,0.7,0.2,1.2,0.6,1.7c0.3,0.5,0.8,0.8,1.5,1l0.8,0.1l1.7,0c0.9,0,1.8-0.4,2.6-1.1c0.8-0.7,1.3-1.3,1.5-1.7l0.2-0.7l0.3-0.7
		l0.2-0.6l0.2-0.7h-3v-3.7h10.4v3.7H67.7z"/>
	<path class="st1" d="M91.9,508.9c-0.4,0-0.6,0-0.7,0l-0.1,0c-0.3,0-0.6-0.1-0.9-0.2l-1.6-0.5c-0.3-0.1-0.7-0.3-1.2-0.7l-1.1-0.8
		c-1-0.8-1.7-2.1-2.3-3.7c-0.4-1.4-0.6-3-0.6-5.1c0-2.1,0.3-3.9,1-5.4c0.8-1.9,2.2-3.3,4.2-4.3c0.6-0.3,1.3-0.5,2.3-0.6
		c0.9-0.1,5.1-0.2,12.5-0.2v3.8h-9.8c-1.9,0-3.2,0.7-4.1,2.1c-0.7,1.1-1,2.5-1,4.3l0.1,2.3c0,0.3,0.1,0.6,0.1,0.8v0.1
		c0,0.3,0.1,0.6,0.2,0.9c0.2,1.1,0.7,1.9,1.5,2.6c0.8,0.6,3.6,1,8.4,1l0-8.9h4.6v12.8H91.9z"/>
	<path class="st1" d="M123,508.9l-4.8-8.4h-5.3v8.4h-4.5v-21.6h11.2h1.1l0.8,0.2l0.6,0.1c0.2,0,0.3,0,0.4,0c0.1,0,0.3,0.1,0.7,0.2
		c1.3,0.3,2.2,1.1,3,2.3c0.6,1.1,0.9,2.4,0.9,3.9c0,1.5-0.4,2.7-1.1,3.8c-0.7,1-1.8,1.7-3.3,2.1l5.3,9H123z M121.8,491.9
		c-0.6-0.5-1.7-0.7-3.3-0.7h-5.6v5.5h5.6c1.6,0,2.7-0.2,3.3-0.7c0.5-0.5,0.8-1.2,0.8-2C122.5,493,122.3,492.3,121.8,491.9z"/>
	<path class="st1" d="M147.3,508.9l-2-5.2h-9.4l-1.9,5.2h-4.8l9.1-21.6h4.8l9.2,21.6H147.3z M140.5,491.7l-3.2,8.3h6.5L140.5,491.7z
		"/>
	<path class="st1" d="M168.8,508.9l-9.3-16.3l0.2,16.3h-4.7v-21.6h5.8l8.8,15.5l-0.2-15.5h4.6v21.6H168.8z"/>
	<path class="st1" d="M178.3,508.9v-21.6h4.8v21.6H178.3z"/>
	<path class="st1" d="M198.2,491.1v17.8h-4.7v-17.8h-6.9v-3.8h18.6v3.8H198.2z"/>
	<path class="st1" d="M217.4,508.9l-1.9-0.1l-0.7,0c-0.2,0-0.4,0-0.6-0.1c-0.1,0-0.2-0.1-0.2-0.1c-0.1,0-0.2,0-0.3-0.1
		c-2.1-0.5-3.8-1.8-4.9-3.8c-0.5-0.8-0.8-1.7-1.1-2.6c-0.3-0.9-0.4-1.9-0.4-2.9c0-2,0.2-3.7,0.5-5c0.3-1.4,0.9-2.6,1.6-3.6
		c0.9-1.2,2-2,3.3-2.5c0.5-0.2,1.3-0.4,2.3-0.6c0.9-0.1,4.2-0.2,10-0.2v3.8h-7.5c-3.4,0-5.1,1.7-5.1,5H225v3.8h-12.6
		c0,0.9,0.1,1.6,0.2,2.2c0.1,0.3,0.2,0.6,0.3,0.9c0.1,0.2,0.3,0.5,0.5,0.8l0.8,0.8c0.3,0.2,0.6,0.4,1,0.5c0.4,0.1,0.8,0.2,1.1,0.2
		l8.7,0v3.8H217.4z"/>
</g>
</svg>
