<?xml version="1.0" encoding="UTF-8"?>
<svg enable-background="new 0 0 576 128" version="1.1" viewBox="0 0 576 128" xml:space="preserve" xmlns="http://www.w3.org/2000/svg">
<style type="text/css">
	.st0{fill:hsl(145, 63%, 47%);}
	.st2{display:inline;opacity:0.2;fill:none;stroke:#231F20;stroke-miterlimit:10;}
</style>
	<path class="st0" d="m117.3 128h-10.7c-5.9 0-10.7-4.8-10.7-10.7v-74.7c0.1-5.8-4.7-10.6-10.6-10.6h-42.7c-5.8 0-10.6 4.8-10.6 10.7v74.7c0 5.9-4.8 10.7-10.7 10.7h-10.7c-5.8-0.1-10.6-4.9-10.6-10.8v-74.7-5.3c0-20.6 16.7-37.3 37.3-37.3h7.2 43.8 2.4c20.6 0 37.3 16.7 37.3 37.3v5.3 74.7c0 5.9-4.8 10.7-10.7 10.7z"/>
	<path class="st0" d="m176 0c-20.6 0-37.3 16.7-37.3 37.3v8.4 39.6 5.3c0 20.6 16.7 37.3 37.3 37.3h5.3 74.7c5.9 0 10.7-4.8 10.7-10.7v-10.7c0-5.9-4.8-10.7-10.7-10.7h-74.7c-5.9 0-10.7-4.8-10.7-10.7v-42.7c0-5.9 4.8-10.7 10.7-10.7h74.7c5.9 0 10.7-4.8 10.7-10.7v-10.7c0-5.5-4.8-10.3-10.7-10.3h-74.7-5.3z"/>
	<path class="st0" d="m485.3 128c-20.6 0-37.3-16.7-37.3-37.3v-53.4c0-20.6 16.7-37.3 37.3-37.3h80c5.9 0 10.7 4.8 10.7 10.7v10.7c0 5.9-4.8 10.7-10.7 10.7h-74.7c-5.9 0-10.7 4.8-10.7 10.7v42.7c0 5.9 4.8 10.7 10.7 10.7h53.3s0-15.9 0-21.3c0-5.9 4.8-10.7 10.7-10.7h10.7c5.9 0 10.7 4.8 10.7 10.7v42.7c0 5.9-4.8 10.7-10.7 10.7h-74.7-5.3z"/>
	<path class="st0" d="m346.7 0c5.9 0 10.7 4.4 10.7 4.4s4.7-4.4 10.6-4.4h32c20.6 0 37.3 16.7 37.3 37.3v80c0 5.9-4.8 10.7-10.7 10.7h-10.7c-5.9 0-10.7-4.8-10.7-10.7v-74.7c0-5.9-4.8-10.7-10.7-10.7h-10.7c-5.9 0-10.7 4.8-10.7 10.7v74.7c0 5.9-4.8 10.7-10.7 10.7h-10.7c-5.9 0-10.7-4.8-10.7-10.7v-74.7c0-5.9-4.8-10.7-10.7-10.7h-10.7c-5.9 0-10.7 4.8-10.7 10.7v74.7c0 5.9-4.8 10.7-10.7 10.7h-10.7c-5.9 0-10.7-4.8-10.7-10.7v-80c0.5-20.6 17.2-37.3 37.9-37.3h32z"/>
</svg>
