<svg width="900" height="450" viewBox="0 0 900 450" fill="none" xmlns="http://www.w3.org/2000/svg">
<path d="M147.537 190.182V260H161.855V214.386H162.435L180.503 259.659H190.253L208.321 214.557H208.901V260H223.219V190.182H205.014L185.787 237.091H184.969L165.741 190.182H147.537ZM250.04 260.989C257.778 260.989 262.79 257.614 265.347 252.739H265.756V260H279.528V224.682C279.528 212.205 268.96 206.955 257.301 206.955C244.756 206.955 236.506 212.955 234.494 222.5L247.926 223.591C248.915 220.114 252.017 217.557 257.233 217.557C262.176 217.557 265.006 220.045 265.006 224.341V224.545C265.006 227.92 261.426 228.364 252.324 229.25C241.96 230.205 232.653 233.682 232.653 245.375C232.653 255.739 240.051 260.989 250.04 260.989ZM254.199 250.966C249.733 250.966 246.528 248.886 246.528 244.898C246.528 240.807 249.903 238.795 255.017 238.08C258.188 237.636 263.369 236.886 265.108 235.727V241.284C265.108 246.773 260.574 250.966 254.199 250.966ZM290.795 260H305.318V230.375C305.318 223.932 310.023 219.5 316.432 219.5C318.443 219.5 321.205 219.841 322.568 220.284V207.398C321.273 207.091 319.466 206.886 318 206.886C312.136 206.886 307.33 210.295 305.42 216.773H304.875V207.636H290.795V260ZM330.077 260H344.599V243.364L348.52 238.898L362.804 260H379.815L359.395 230.307L378.827 207.636H362.156L345.384 227.511H344.599V190.182H330.077V260ZM432.384 190.182H419.565V236.477L402.418 219.33L393.69 228.125L425.974 260.409L458.327 228.125L449.463 219.33L432.384 236.477V190.182ZM477.818 190.182V260H492.136V214.386H492.716L510.784 259.659H520.534L538.602 214.557H539.182V260H553.5V190.182H535.295L516.068 237.091H515.25L496.023 190.182H477.818ZM580.321 260.989C588.06 260.989 593.071 257.614 595.628 252.739H596.037V260H609.81V224.682C609.81 212.205 599.241 206.955 587.582 206.955C575.037 206.955 566.787 212.955 564.776 222.5L578.207 223.591C579.196 220.114 582.298 217.557 587.514 217.557C592.457 217.557 595.287 220.045 595.287 224.341V224.545C595.287 227.92 591.707 228.364 582.605 229.25C572.241 230.205 562.935 233.682 562.935 245.375C562.935 255.739 570.332 260.989 580.321 260.989ZM584.48 250.966C580.014 250.966 576.81 248.886 576.81 244.898C576.81 240.807 580.185 238.795 585.298 238.08C588.469 237.636 593.651 236.886 595.389 235.727V241.284C595.389 246.773 590.855 250.966 584.48 250.966ZM644.668 280.386C659.634 280.386 670.27 273.568 670.27 260.511V207.636H655.849V216.432H655.304C653.361 212.17 649.099 206.955 640.338 206.955C628.849 206.955 619.134 215.886 619.134 233.716C619.134 251.136 628.577 259.25 640.372 259.25C648.724 259.25 653.395 255.057 655.304 250.727H655.918V260.307C655.918 267.159 651.315 269.955 645.009 269.955C638.599 269.955 635.361 267.159 634.168 264.33L620.736 266.136C622.474 274.045 630.554 280.386 644.668 280.386ZM644.974 248.341C637.849 248.341 633.963 242.682 633.963 233.648C633.963 224.75 637.781 218.511 644.974 218.511C652.031 218.511 655.986 224.477 655.986 233.648C655.986 242.886 651.963 248.341 644.974 248.341ZM681.827 260H696.349V207.636H681.827V260ZM689.122 200.886C693.452 200.886 696.997 197.58 696.997 193.523C696.997 189.5 693.452 186.193 689.122 186.193C684.827 186.193 681.281 189.5 681.281 193.523C681.281 197.58 684.827 200.886 689.122 200.886ZM731.642 261.023C745.585 261.023 754.347 252.841 755.028 240.807H741.324C740.472 246.398 736.79 249.534 731.812 249.534C725.028 249.534 720.631 243.841 720.631 233.818C720.631 223.932 725.062 218.273 731.812 218.273C737.131 218.273 740.54 221.784 741.324 227H755.028C754.415 214.898 745.244 206.955 731.574 206.955C715.688 206.955 705.869 217.966 705.869 234.023C705.869 249.943 715.517 261.023 731.642 261.023Z" fill="url(#paint0_linear)"/>
<defs>
<linearGradient id="paint0_linear" x1="141" y1="177" x2="759.651" y2="268.601" gradientUnits="userSpaceOnUse">
<stop stop-color="#AA28FB"/>
<stop offset="1" stop-color="#C328FB"/>
</linearGradient>
</defs>
</svg>
