<svg viewBox="0 0 700 72" xmlns="http://www.w3.org/2000/svg"><path d="M40.023 22.114h16.159C56.045 9.057 45.648.227 29.42.227 13.466.227 1.977 8.92 2.08 21.91c-.035 10.602 7.397 16.568 19.465 19.33l7.296 1.704c7.67 1.773 11.114 3.852 11.182 7.773-.069 4.261-4.057 7.227-10.841 7.227-7.466 0-12.375-3.477-12.75-10.193H.272C.478 64.08 11.83 71.886 29.387 71.886c17.387 0 27.682-7.875 27.75-21.136-.068-11.148-7.602-17.966-21.375-21l-6-1.364c-6.34-1.363-10.363-3.477-10.227-7.636.034-3.818 3.307-6.58 9.852-6.58 6.58 0 10.194 2.966 10.637 7.944zM71.419 71h48.682V57.295H88.294V42.944h29.318V29.205H88.294V14.885h31.807V1.182H71.419V71zm80.112 0l4.603-14.66h24.102L184.838 71h18.137L179.418 1.182h-22.466L133.395 71h18.136zm8.625-27.477l7.739-24.75h.545l7.773 24.75h-16.057zM275.672 1.182h-16.841v40.227h-.579L230.774 1.182h-14.522V71h16.875V30.704h.443L261.354 71h14.318V1.182zm25.746 48.102c4.67 0 8.795-3.954 8.863-8.864-.068-4.84-4.193-8.76-8.863-8.76-4.909 0-8.932 3.92-8.864 8.76-.068 4.91 3.955 8.864 8.864 8.864zM327.053 71h31.329c15.444 0 24.307-8.25 24.307-19.534 0-10.091-7.329-16.432-15.784-16.807v-.682c7.671-1.602 13.057-7.159 13.057-15.136 0-10.534-8.114-17.66-23.796-17.66h-29.113V71zm16.875-13.602V40.76h10.738c6.444 0 10.398 3.41 10.398 8.762 0 4.943-3.409 7.875-10.704 7.875h-10.432zm0-27.512V14.58h9.613c5.625 0 9.205 2.897 9.205 7.534 0 4.909-3.955 7.772-9.477 7.772h-9.341zM411.665 71l4.602-14.66h24.103L444.972 71h18.136L439.551 1.182h-22.465L393.529 71h18.136zm8.625-27.477l7.739-24.75h.545l7.773 24.75H420.29zm72.97-42.341h-16.875V71h16.875V1.182zM509.614 71h45.921V57.295h-29.046V1.182h-16.875V71zm60.416 0h48.682V57.295h-31.807V42.944h29.319V29.205h-29.319V14.885h31.807V1.182H570.03V71zm61.533-69.818l25.534 46.5V71h16.773V47.682l25.534-46.5h-18.852L665.79 30.398h-.613L650.415 1.182h-18.852z"/></svg>
